<?xml version="1.0" standalone="no"?><!DOCTYPE svg PUBLIC "-//W3C//DTD SVG 1.1//EN" "http://www.w3.org/Graphics/SVG/1.1/DTD/svg11.dtd"><svg class="icon" width="128px" height="128.00px" viewBox="0 0 1024 1024" version="1.1" xmlns="http://www.w3.org/2000/svg"><path d="M589.5 93.5h21.273l206.727 242-5 14.448h-178L603.621 335.5l-26.121-41z" fill="#FFFFFF" /><path d="M822.751 341.884a53.36 53.36 0 0 0-9.476-16.233L624.859 104.705c-4.879-5.722-11.025-9.969-18.302-13.327S591.645 87 584.125 87H226.318c-13.705 0-27.293 4.68-37.75 15.137C178.111 112.593 173 125.75 173 139.456v728.317c0 13.705 5.111 27.748 15.568 38.205S212.612 922 226.318 922h546.237c13.705 0 27.357-5.566 37.813-16.023C820.825 895.52 826 881.477 826 867.772v-507.37c0-6.152-0.998-12.408-3.249-18.518z m-19.211-8.139c-0.103-0.278-0.266-0.745-0.373-0.745H647.29c-12.514 0-23.725-2.103-33.272-11.651-9.548-9.547-13.018-19.39-13.018-31.904V103.536c0 0.556 3.385 0.983 5.003 1.73 6.644 3.067 12.308 7.229 16.764 12.454L794.84 319.407c3.463 4.06 6.287 2.593 8.327 13.593h0.637c-0.112 0-0.145 1.068-0.264 0.745z" fill="#F4EBFF" /><path d="M907.066 573.269C896.609 562.812 882.655 558 868.95 558H837V360.402c0-1.402 0.034-2.808 0.144-4.22 0.403-5.172 1.289-12.253-1.744-20.48-2.38-6.459-5.282-13.775-10.982-20.454L636.532 94.281c-6.6-7.745-14.257-11.176-20.967-14.199l-2.579-1.161c-7.494-3.462-14.61-3.907-19.96-3.907-1.621 0-3.249 0.451-4.886 0.498-1.328 0.042-2.669 0.487-4.013 0.487H226.318c-22.681 0-40.321 5.553-52.083 17.309C163.498 104.057 151 118.652 151 139.456v728.317c0 17.514 9.225 38.011 23.24 52.038C188.261 933.82 208.804 943 226.318 943h546.237c20.804 0 35.893-12.454 46.646-23.195C830.952 908.048 837 890.459 837 867.772V793h31.95c13.705 0 27.659-5.329 38.116-15.786S923 752.951 923 739.246V610.719c0-13.705-5.477-26.994-15.934-37.45zM601 108.866l1.202 0.503c5.376 2.427 8.259 3.965 10.094 6.114L796.483 333H640.969c-9.387 0-20.333-5.168-27.749-12.589-7.368-7.363-12.22-18.624-12.22-28.105v-183.44z m204 758.906c0 9.523-1.595 22.513-8.456 29.375-9.576 9.576-16.86 13.853-23.988 13.853H226.318c-8.849 0-21.138-6.066-28.92-13.848-7.787-7.787-13.398-20.531-13.398-29.38V139.456c0-7.128 3.822-13.918 13.393-23.489C204.26 109.1 216.795 108 226.319 108H569v184.306c0 18.111 8.081 37.286 21.563 50.763C604.098 356.603 622.958 365 640.969 365H805v193H429.818c-13.706 0-27.544 4.812-38 15.269C381.361 583.725 376 597.014 376 610.719v128.526c0 13.705 5.361 27.511 15.818 37.968a53.794 53.794 0 0 0 38 15.786H805v74.773z" fill="#9E63EA" /><path d="M489.173 723.126l44.176-106.76h26.091l44.181 106.76h-26.572l-10.402-24.653h-40.499l-10.402 24.653h-26.573z m57.302-80.988l-15.203 37.288h30.411l-15.208-37.288zM695.178 616.366v19.047h-29.611c-7.688 0-13.289 0.533-16.808 1.6-3.525 1.067-6.459 3.148-8.807 6.244-1.6 2.134-2.693 4.268-3.279 6.401s-1.093 5.763-1.522 10.888h60.027v19.047h-60.027c0.852 9.173 3.577 15.553 8.164 19.12 4.586 3.577 12.379 5.366 23.372 5.366h28.492v19.047h-29.611c-8.007 0-15.051-0.481-21.133-1.433-9.602-1.611-17.232-5.815-22.885-12.646-8.111-9.821-12.17-23.105-12.17-39.861 0-18.566 5.711-33.031 17.127-43.376 3.948-3.525 8.137-5.983 12.567-7.364 4.43-1.391 10.376-2.081 17.849-2.081l38.255 0.001zM735.839 685.838v37.288h-22.734v-106.76h53.307c9.706 0 16.646 0.69 20.804 2.081 7.044 2.343 12.593 7.196 16.652 14.56 2.986 5.554 4.482 11.579 4.482 18.095 0 5.439-0.988 10.585-2.965 15.438-1.972 4.864-4.722 8.838-8.242 11.934-3.201 2.772-6.589 4.696-10.161 5.753-3.577 1.077-8.462 1.611-14.648 1.611h-36.495z m0-19.057h30.892c5.544 0 9.445-0.847 11.683-2.552 3.305-2.667 4.963-7.311 4.963-13.932 0-7.144-2.51-11.736-7.526-13.765-1.815-0.743-4.696-1.119-8.64-1.119h-31.373l0.001 31.368z" fill="#FFFFFF" /><path d="M380.089 349.948h-85.684c-11.841 0-21.421-9.602-21.421-21.421 0-11.84 9.581-21.421 21.421-21.421h85.684c11.83 0 21.421 9.581 21.421 21.421 0 11.819-9.591 21.421-21.421 21.421z m-64.263-85.685c0-11.84 9.581-21.421 21.421-21.421h85.684c11.83 0 21.421 9.581 21.421 21.421 0 11.819-9.591 21.421-21.421 21.421h-85.684c-11.841 0-21.421-9.602-21.421-21.421zM347.957 200c0-11.84 9.581-21.421 21.421-21.421h85.684c11.83 0 21.421 9.581 21.421 21.421 0 11.819-9.591 21.421-21.421 21.421h-85.684c-11.84 0-21.421-9.602-21.421-21.421z" fill="#9E63EA" /></svg>