<?xml version="1.0" standalone="no"?><!DOCTYPE svg PUBLIC "-//W3C//DTD SVG 1.1//EN" "http://www.w3.org/Graphics/SVG/1.1/DTD/svg11.dtd"><svg class="icon" width="128px" height="128.00px" viewBox="0 0 1024 1024" version="1.1" xmlns="http://www.w3.org/2000/svg"><path d="M587.329 97.5h21.273l206.727 242-5 14.448h-178L601.45 339.5l-26.121-41z" fill="#FFFFFF" /><path d="M822.025 345.912c-2.251-6.11-5.847-11.552-9.838-16.233L623.589 108.733c-4.879-5.722-11.115-11.982-18.393-15.34C597.919 90.034 590.194 87 582.674 87H224.867c-13.705 0-26.567 6.694-37.024 17.15C177.385 114.607 173 129.778 173 143.483v728.316c0 13.705 4.385 25.734 14.842 36.191S211.161 922 224.867 922h546.237c13.705 0 28.082-3.552 38.539-14.009S826 885.505 826 871.799v-507.37c0-6.152-1.723-12.408-3.975-18.517z m-19.936-12.167c-0.103-0.278-0.266-0.745-0.373-0.745H645.839c-12.514 0-22.999-0.09-32.547-9.637-9.547-9.548-12.292-17.377-12.292-29.891V107.564c0 0.556 2.659 0.983 4.277 1.73 6.644 3.067 11.946 7.229 16.401 12.454L793.57 321.421c3.463 4.06 6.106 11.579 8.146 11.579h0.637c-0.112 0-0.145 1.068-0.264 0.745z" fill="#FFF5EE" /><path d="M906.34 575.282C895.883 564.825 881.204 558 867.499 558H837V364.43c0-1.402-0.691-2.808-0.581-4.22 0.403-5.172-0.604-12.253-3.637-20.48-2.38-6.459-4.698-13.775-10.398-20.454L634.789 98.308c-6.6-7.745-14.112-11.176-20.821-14.199l-2.506-1.161c-7.494-3.462-14.573-3.907-19.923-3.907-1.621 0-3.231-1.563-4.868-1.516-1.328 0.042-2.65-1.526-3.994-1.526h-357.81c-22.681 0-39.595 7.567-51.357 19.323C162.773 106.07 151 122.679 151 143.483v728.316c0 17.514 8.499 35.998 22.515 50.024C187.536 935.834 207.352 943 224.867 943h546.237c20.804 0 36.619-10.44 47.372-21.182C830.227 910.062 837 894.486 837 871.799V793h30.499c13.705 0 28.385-3.316 38.842-13.772 10.457-10.457 16.66-22.249 16.66-35.955V614.747c-0.001-13.706-6.204-29.008-16.661-39.465zM608.846 117.497L795.031 333H639.518c-9.387 0-19.607-3.154-27.023-10.575-7.369-7.363-11.495-16.61-11.495-26.092v-182.33c11 2.003 6.182 1.546 7.846 3.494zM805 871.799c0 9.523-2.32 20.5-9.182 27.361-9.576 9.576-17.586 11.84-24.714 11.84H224.867c-8.849 0-20.412-4.052-28.194-11.834-7.788-7.787-12.673-18.518-12.673-27.367V143.483c0-7.128 3.097-15.932 12.667-25.502 6.867-6.867 18.676-9.981 28.199-9.981H569v188.333c0 18.111 7.356 35.272 20.838 48.749C603.373 358.617 621.507 365 639.518 365H805v193H428.367c-13.705 0-26.818 6.825-37.274 17.282C380.635 585.739 376 601.041 376 614.747v128.526c0 13.705 4.635 25.498 15.092 35.955C401.549 789.684 414.661 793 428.367 793H805v78.799z" fill="#FF9336" /><path d="M569.36 727.022l44.176-106.76h26.091l44.181 106.76h-26.572l-10.402-24.653h-40.499l-10.402 24.653H569.36z m57.302-80.988l-15.203 37.288h30.411l-15.208-37.288zM695.329 727.022v-106.76h22.734v106.76h-22.734z" fill="#FFFFFF" /><path d="M405.77 373.884c-11.966 7.091-25.772 11.422-40.687 11.422-15.522 0-29.873-4.602-42.152-12.217-2.52 0.921-5.209 1.507-8.053 1.507-12.949 0-23.429-10.48-23.429-23.429 0-3.577 0.858-6.946 2.301-9.979-5.564-10.919-8.995-23.115-8.995-36.21 0-13.912 3.859-26.818 10.083-38.219-2.102-3.514-3.389-7.594-3.389-11.986 0-12.929 10.48-23.429 23.429-23.429 4.392 0 8.461 1.297 11.975 3.389 11.412-6.213 24.309-10.083 38.23-10.083 5.366 0 10.553 0.69 15.595 1.757l-19.13-19.141c-1.036 0.293-2.039 0.649-3.159 0.649-7.029 0-12.719-5.691-12.719-12.719 0-7.029 5.689-12.719 12.719-12.719 7.018 0 12.719 5.689 12.719 12.719 0 1.903-0.481 3.661-1.214 5.272l31.117 31.127c4.131-2.029 8.702-3.264 13.608-3.264 17.195 0 31.127 13.932 31.127 31.128 0 4.874-1.443 9.309-3.451 13.409l24.83 24.831c1.192-0.377 2.406-0.753 3.724-0.753 7.018 0 12.719 5.689 12.719 12.719 0 7.028-5.701 12.719-12.719 12.719-7.029 0-12.719-5.69-12.719-12.719 0-1.716 0.356-3.347 0.973-4.833l-15.449-15.46c1.067 5.041 1.758 10.23 1.758 15.606 0 14.915-4.352 28.721-11.432 40.687 0.428 1.778 0.722 3.598 0.722 5.502 0 12.949-10.491 23.429-23.429 23.429-1.905-0.001-3.725-0.295-5.503-0.712z m25.877-114.427c0-9.413-7.625-17.029-17.028-17.029-9.413 0-17.029 7.615-17.029 17.029 0 9.413 7.615 17.028 17.029 17.028 9.403-0.001 17.028-7.615 17.028-17.028z m-4.309 45.519c0-5.669-1.067-11.046-2.552-16.234-3.2 1.11-6.589 1.841-10.166 1.841-17.196 0-31.128-13.932-31.128-31.127 0-8.368 3.347-15.941 8.724-21.526l0.189 0.189c-2.846 3.2-4.602 5.417-5.963 9.602-5.439-1.569-15.417-5-21.358-5-9.916 0-19.152 2.531-27.467 6.652 0.419 1.736 0.691 3.534 0.691 5.397 0 12.949-10.491 23.429-23.429 23.429-1.872 0-3.661-0.272-5.408-0.691-4.111 8.326-6.642 17.551-6.642 27.467a61.97 61.97 0 0 0 4.822 24.015c2.29-0.754 4.686-1.255 7.227-1.255 12.938 0 23.429 10.501 23.429 23.429 0 3.137-0.649 6.108-1.758 8.848 8.577 4.457 18.19 7.218 28.534 7.218 9.058 0 17.613-2.03 25.374-5.502-1.622-3.2-2.614-6.736-2.614-10.564 0-12.929 10.48-23.429 23.429-23.429 3.807 0 7.363 1.004 10.542 2.614 3.483-7.759 5.524-16.315 5.524-25.373z" fill="#FF9336" /></svg>