<?xml version="1.0" standalone="no"?><!DOCTYPE svg PUBLIC "-//W3C//DTD SVG 1.1//EN" "http://www.w3.org/Graphics/SVG/1.1/DTD/svg11.dtd"><svg class="icon" width="128px" height="128.00px" viewBox="0 0 1024 1024" version="1.1" xmlns="http://www.w3.org/2000/svg"><path d="M589.5 99.5h21.273l206.727 242-5 14.448h-178L603.621 341.5l-26.121-41z" fill="#FFFFFF" /><path d="M820.427 342.278c-2.251-6.11-6.646-11.552-10.637-16.233L620.793 105.099c-4.879-5.722-11.315-10.165-18.592-13.523C594.923 88.217 586.999 87 579.478 87H221.671c-13.705 0-24.97 4.877-35.426 15.334C175.788 112.79 173 126.144 173 139.849v728.317c0 13.705 2.788 27.551 13.244 38.008S207.966 922 221.671 922h546.237c13.705 0 29.68-5.369 40.137-15.826S826 881.871 826 868.166V360.795c0-6.151-3.321-12.408-5.573-18.517z m-21.534-8.533c-0.103-0.278-0.266-0.745-0.373-0.745H642.643c-12.514 0-21.401-1.906-30.949-11.454-9.547-9.548-10.694-19.193-10.694-31.708V103.93c0 0.556 1.061 0.983 2.679 1.73 6.644 3.067 11.147 7.229 15.602 12.454l171.493 201.49c3.463 4.06 5.706 2.396 7.746 13.396h0.637c-0.111 0-0.145 1.068-0.264 0.745z" fill="#DCFFEB" /><path d="M904.743 573.465C894.286 563.008 878.008 558 864.303 558H837V360.796c0-1.402-2.289-2.808-2.179-4.22 0.403-5.172-0.255-12.253-3.289-20.48-2.38-6.459-5.671-13.775-11.372-20.454L632.08 94.674c-6.6-7.745-14.355-11.176-21.065-14.199l-2.628-1.161c-7.494-3.462-14.634-3.907-19.984-3.907-1.621 0-3.261 0.254-4.898 0.301-1.328 0.043-2.681 0.292-4.025 0.292H221.671c-22.681 0-37.997 5.75-49.759 17.506C161.175 104.253 151 119.045 151 139.849v728.317c0 17.514 6.901 37.815 20.917 51.841C185.938 934.017 204.156 943 221.671 943h546.237c20.804 0 38.217-12.257 48.969-22.999C828.629 908.245 837 890.852 837 868.166V793h27.303c13.705 0 29.983-5.133 40.439-15.589C915.199 766.954 923 753.344 923 739.639V611.113c0-13.706-7.801-27.191-18.257-37.648zM601 109.259l-1.121 0.503c5.376 2.427 6.714 3.768 8.549 5.918L791.836 333H636.322c-9.387 0-18.009-4.971-25.425-12.392-7.369-7.363-9.898-18.427-9.898-27.909l0.001-183.44z m204 758.907c0 9.523-3.918 22.317-10.78 29.178-9.575 9.575-19.184 13.656-26.312 13.656H221.671c-8.849 0-18.815-5.869-26.596-13.651-7.788-7.787-11.075-20.335-11.075-29.183V139.849c0-7.128 1.499-14.115 11.069-23.685 6.867-6.867 17.078-8.164 26.602-8.164H569v184.699c0 18.111 5.758 37.089 19.24 50.566C601.775 356.8 618.311 365 636.322 365H805v193H425.171c-13.705 0-25.22 5.008-35.677 15.465C379.038 583.922 376 597.407 376 611.113v128.526c0 13.705 3.038 27.315 13.495 37.771 10.456 10.457 21.971 15.59 35.676 15.59H805v75.166z" fill="#33C173" /><path d="M505.636 723.52l44.176-106.765h26.091l44.181 106.765h-26.572l-10.402-24.653h-40.5l-10.402 24.653h-26.572z m57.303-80.993l-15.203 37.293h30.411l-15.208-37.293zM735.332 616.754L688.589 723.52H665.86l-44.976-106.765h25.61l31.373 80.355 31.854-80.355 25.611-0.001zM746.534 723.52V616.754h22.734V723.52h-22.734z" fill="#FFFFFF" /><path d="M300.759 398.997h-10.711v-10.711h-10.711v10.711h-21.421v-192.79h21.421v10.711h10.711v-10.711h10.711v10.711h117.816v-10.711h10.711v10.711h10.711v-10.711h21.421v192.79h-21.421v-10.711h-10.711v10.711h-10.711v-10.711H300.759v10.711z m-10.71-171.368h-10.711v21.421h10.711v-21.421z m0 32.131h-10.711v21.421h10.711V259.76z m0 42.842v-10.711h-10.711v21.421h10.711v-10.71z m0 21.421h-10.711v21.421h10.711v-21.421z m0 32.132h-10.711v21.421h10.711v-21.421z m139.237 21.421h10.711v-21.421h-10.711v21.421z m0-32.132h10.711v-21.421h-10.711v21.421z m0-42.842v10.711h10.711v-21.421h-10.711v10.71z m0-21.421h10.711V259.76h-10.711v21.421z m0-32.131h10.711v-21.421h-10.711v21.421z m-10.711 42.842v-64.263H300.759v74.975h117.816v-10.712z m0 85.684v-64.264H300.759v64.264h117.816z" fill="#33C173" /></svg>