<?xml version="1.0" standalone="no"?><!DOCTYPE svg PUBLIC "-//W3C//DTD SVG 1.1//EN" "http://www.w3.org/Graphics/SVG/1.1/DTD/svg11.dtd"><svg class="icon" width="128px" height="128.00px" viewBox="0 0 1024 1024" version="1.1" xmlns="http://www.w3.org/2000/svg"><path d="M586.921 94.5h21.273l206.727 242-5 14.448h-178L601.042 336.5l-26.121-41z" fill="#FFFFFF" /><path d="M822.742 346.988a53.37 53.37 0 0 0-9.48-16.233L624.843 109.809c-4.879-5.722-11.026-12.52-18.303-15.878s-14.912-6.93-22.433-6.93H226.3c-13.705 0-27.284 7.232-37.741 17.689C178.102 115.145 173 130.854 173 144.559v728.317c0 13.705 5.102 25.196 15.559 35.653C199.016 918.986 212.595 922 226.3 922h546.237c13.705 0 27.365-3.014 37.822-13.471 10.457-10.457 15.64-21.948 15.64-35.653V365.505c0.001-6.151-1.006-12.408-3.257-18.517z m-19.22-13.243c-0.103-0.278-0.266 10.255-0.373-0.745H647.272c-12.514 0-23.716 0.449-33.263-9.099-9.548-9.548-13.009-16.838-13.009-29.353V108.64c0 0.556 3.376 0.983 4.994 1.73 6.644 3.067 12.304 7.229 16.759 12.454l172.072 199.135c3.463 4.06 6.285 11.041 8.325 11.041h0.637c-0.112 0-0.146 1.068-0.265 0.745z" fill="#FFEADC" /><path d="M907.057 575.82C896.6 565.363 882.638 558 868.932 558H837V365.506c0-1.402 0.026-2.808 0.136-4.22 0.403-5.172 0.519-12.253-2.514-20.48-2.38-6.459-4.901-13.775-10.602-20.454L636.323 99.384c-6.6-7.745-14.162-11.176-20.872-14.199l-2.531-1.161c-7.494-3.462-14.586-3.907-19.936-3.907-1.621 0-3.237-2.101-4.874-2.054-1.328 0.042-2.657-2.064-4.001-2.064H226.3c-22.681 0-40.311 8.105-52.073 19.861C163.49 106.608 151 123.755 151 144.559v728.317c0 17.514 9.216 35.46 23.232 49.486C188.253 936.372 208.785 943 226.3 943h546.237c20.804 0 35.903-9.902 46.655-20.644C830.944 910.6 837 895.562 837 872.876V793h31.932c13.706 0 27.668-2.778 38.125-13.234S923 758.054 923 744.349V615.823c0-13.706-5.486-29.546-15.943-40.003zM601 113.969l1.193 0.503c5.376 2.427 7.488 1.413 9.324 3.563L796.464 333H640.951c-9.387 0-20.323-2.616-27.739-10.037-7.368-7.364-12.212-16.072-12.212-25.554v-183.44z m204 758.907c0 9.523-1.604 19.962-8.465 26.823-9.576 9.576-16.87 11.301-23.998 11.301H226.3c-8.849 0-21.129-3.514-28.91-11.296-7.787-7.787-13.389-17.98-13.389-26.828V144.559c0-7.128 3.814-16.47 13.384-26.04C204.251 111.652 216.776 108 226.3 108H569v189.409c0 18.111 8.073 34.734 21.555 48.211C604.089 359.155 622.94 365 640.951 365H805v193H429.8c-13.705 0-27.534 7.363-37.991 17.82S376 602.117 376 615.823v128.526c0 13.705 5.352 24.96 15.809 35.416C402.265 790.222 416.095 793 429.8 793H805v79.876z" fill="#E26814" /><path d="M581.748 621.338v19.047h-29.611c-7.688 0-13.284 0.533-16.808 1.6-3.525 1.067-6.453 3.148-8.807 6.244-1.6 2.134-2.688 4.268-3.274 6.401-0.586 2.134-1.098 5.763-1.527 10.888h60.027v19.047h-60.027c0.858 9.173 3.577 15.553 8.169 19.12 4.581 3.577 12.374 5.366 23.367 5.366h28.492v19.047h-29.611c-8.002 0-15.051-0.481-21.128-1.433-9.602-1.611-17.237-5.815-22.885-12.646-8.117-9.821-12.175-23.105-12.175-39.861 0-18.566 5.711-33.031 17.133-43.376 3.943-3.525 8.138-5.983 12.562-7.364 4.435-1.391 10.376-2.081 17.854-2.081l38.249 0.001zM622.415 690.81v37.288h-22.739v-106.76h53.312c9.706 0 16.641 0.69 20.804 2.081 7.039 2.343 12.593 7.196 16.652 14.56 2.981 5.554 4.477 11.579 4.477 18.095 0 5.439-0.983 10.585-2.96 15.438-1.977 4.864-4.728 8.838-8.242 11.934-3.201 2.772-6.589 4.696-10.167 5.753-3.577 1.077-8.462 1.611-14.643 1.611h-36.494z m0-19.057h30.887c5.544 0 9.445-0.847 11.683-2.552 3.305-2.667 4.968-7.311 4.968-13.932 0-7.144-2.51-11.736-7.531-13.765-1.81-0.743-4.696-1.119-8.64-1.119h-31.368l0.001 31.368zM708.842 728.098v-19.047h48.825c7.782 0 12.959-0.743 15.522-2.238 3.734-2.238 5.606-5.606 5.606-10.083 0-5.23-2.197-9.016-6.569-11.37-2.458-1.381-6.401-2.081-11.84-2.081h-19.852c-12.06 0-20.752-2.186-26.086-6.558-3.316-2.772-5.899-6.244-7.771-10.407-1.862-4.163-2.793-8.64-2.793-13.44 0-7.468 2.186-14.309 6.558-20.49 4.267-5.983 11.098-9.497 20.49-10.564 3.201-0.324 7.949-0.481 14.246-0.481h52.977v19.047h-47.852c-7.154 0.105-11.903 0.429-14.246 0.962-4.811 1.171-7.207 4.801-7.207 10.878 0 5.125 2.029 8.545 6.077 10.25 2.667 1.276 7.154 1.914 13.451 1.914H765.5c8.755 0 15.26 0.753 19.538 2.249 7.573 2.563 12.802 7.039 15.679 13.44 2.249 5.125 3.368 10.616 3.368 16.484 0 6.516-1.496 12.332-4.487 17.457-4.163 7.248-10.407 11.631-18.723 13.116-4.058 0.648-10.198 0.962-18.409 0.962h-53.624z" fill="#FFFFFF" /><path d="M347.361 397.427h-53.553v-52.883h21.421V247.71h10.711v96.834h21.421v20.982h96.395v-20.982h21.421V247.71h10.711v96.834h21.421v52.883h-53.553v-21.191h-96.395v21.191z m-10.983-42.57H304.79v32.948h31.588v-32.948z m118.36 32.947h31.588v-32.948h-31.588v32.948z m-10.982-160.846h-96.395v20.521h-53.553v-52.883h53.553v21.651h96.395v-21.651h53.553v52.883h-53.553v-20.521z m-107.378-22.049H304.79v32.948h31.588v-32.948z m118.36 32.948h31.588v-32.948h-31.588v32.948z" fill="#E26814" /></svg>