<?xml version="1.0" standalone="no"?><!DOCTYPE svg PUBLIC "-//W3C//DTD SVG 1.1//EN" "http://www.w3.org/Graphics/SVG/1.1/DTD/svg11.dtd"><svg class="icon" width="128px" height="128.00px" viewBox="0 0 1024 1024" version="1.1" xmlns="http://www.w3.org/2000/svg"><path d="M590.5 96.5h21.273l206.727 242-5 14.448h-178L604.621 338.5l-26.121-41z" fill="#FFFFFF" /><path d="M821.712 342.179c-2.251-6.11-6.003-11.552-9.995-16.233L623.041 104.999c-4.879-5.722-11.155-10.116-18.432-13.474S589.568 87 582.048 87H224.24c-13.705 0-26.254 4.827-36.711 15.284C177.072 112.74 173 126.045 173 139.75v728.317c0 13.705 4.072 27.601 14.529 38.058S210.535 922 224.24 922h546.237c13.705 0 28.395-5.419 38.852-15.876S826 881.771 826 868.066v-507.37c0-6.152-2.037-12.408-4.288-18.517z m-20.249-8.434c-0.103-0.278-0.266-0.745-0.373-0.745H645.213c-12.514 0-22.686-1.956-32.233-11.504-9.548-9.547-11.98-19.243-11.98-31.757V103.83c0 0.556 2.346 0.983 3.964 1.73 6.644 3.067 11.789 7.229 16.244 12.454l171.814 201.54c3.463 4.06 6.028 2.446 8.067 13.446h0.637c-0.111 0-0.144 1.068-0.263 0.745z" fill="#E6F6FF" /><path d="M906.027 573.416C895.571 562.959 880.578 558 866.872 558H837V360.696c0-1.402-1.004-2.808-0.894-4.22 0.403-5.172 1.152-12.253-1.882-20.48-2.38-6.459-5.733-13.775-11.433-20.454L634.679 94.575c-6.6-7.745-14.37-11.176-21.08-14.199l-2.635-1.161c-7.494-3.462-14.638-3.907-19.988-3.907-1.621 0-3.263 0.304-4.9 0.351-1.328 0.042-2.683 0.34-4.027 0.34H224.24c-22.681 0-39.282 5.7-51.043 17.456C162.46 104.204 151 118.946 151 139.75v728.317c0 17.514 8.186 37.864 22.202 51.891C187.223 933.967 206.726 943 224.24 943h546.237c20.804 0 36.933-12.307 47.685-23.048C829.914 908.195 837 890.753 837 868.066V793h29.872c13.705 0 28.698-5.182 39.155-15.639C916.484 766.904 923 753.245 923 739.54V611.013c0-13.705-6.516-27.141-16.973-37.597zM601 109.16l0.164 0.503c5.376 2.427 8.121 3.818 9.957 5.967L794.405 333H638.892c-9.387 0-19.293-5.021-26.709-12.442C604.814 313.195 601 302.081 601 292.6V109.16z m204 758.906c0 9.523-2.633 22.366-9.495 29.228C785.93 906.87 777.606 911 770.477 911H224.24c-8.849 0-20.099-5.919-27.881-13.701-7.787-7.787-12.359-20.384-12.359-29.233V139.75c0-7.128 2.784-14.065 12.354-23.636 6.867-6.867 18.363-8.114 27.886-8.114H569v184.6c0 18.111 7.043 37.139 20.525 50.616C603.06 356.75 620.88 365 638.892 365H805v193H427.74c-13.705 0-26.505 4.959-36.962 15.416C380.323 583.872 376 597.308 376 611.013V739.54c0 13.705 4.323 27.364 14.779 37.821C401.236 787.818 414.035 793 427.74 793H805v75.066z" fill="#4790C1" /><path d="M505.344 616.655l26.567 83.394 28.011-83.394h33.136V723.42h-21.609v-80.036l-27.854 80.036h-23.367l-26.41-80.036v80.036h-21.609V616.655h33.135zM661.891 616.017c10.669 0 20.061 1.815 28.167 5.439 9.497 4.377 16.17 11.688 20.009 21.928 2.991 8.007 4.487 17.399 4.487 28.173 0 10.888-1.82 20.328-5.449 28.335-4.581 9.497-11.631 16.165-21.128 20.009-7.039 2.772-15.145 4.158-24.329 4.158-12.06 0-22.519-2.238-31.368-6.72-7.479-3.734-13.179-9.607-17.133-17.609-3.943-8.002-5.92-17.713-5.92-29.13 0-20.386 5.062-34.898 15.208-43.543 8.536-7.254 21.025-10.935 37.456-11.04z m0.157 17.928c-10.459 0-17.928 3.415-22.404 10.24-3.629 5.34-5.449 13.927-5.449 25.772 0 12.489 2.249 21.667 6.725 27.535 4.487 5.758 11.579 8.64 21.285 8.64 9.393 0 16.306-2.934 20.731-8.802 4.435-5.868 6.642-14.941 6.642-27.21 0-11.207-1.809-19.742-5.439-25.61-4.163-6.941-11.527-10.461-22.091-10.565zM834.285 616.655L787.541 723.42h-22.729l-44.976-106.765h25.605l31.379 80.355 31.849-80.355h25.616z" fill="#FFFFFF" /><path d="M363.195 150.454c-61.865 0-112.025 49.011-112.025 110.877s50.159 120.175 112.025 120.175c61.88 0 112.025-58.309 112.025-120.175 0.001-61.866-50.145-110.877-112.025-110.877z m0 197.302c-43.212 0-78.248-43.212-78.248-86.426 0-43.212 35.035-77.098 78.248-77.098 43.227 0 78.248 33.886 78.248 77.098 0.001 43.214-35.021 86.426-78.248 86.426z" fill="#4790C1" /><path d="M360.319 307.548a10.708 10.708 0 0 1-11.572 1.977 10.707 10.707 0 0 1-6.433-9.819v-75.593c0-4.132 2.405-8.065 6.433-9.819a10.706 10.706 0 0 1 11.572 1.977l40.638 37.797c2.102 1.955 3.416 4.746 3.416 7.843s-1.314 5.887-3.416 7.843l-40.638 37.794z" fill="#4790C1" /></svg>