<?xml version="1.0" standalone="no"?><!DOCTYPE svg PUBLIC "-//W3C//DTD SVG 1.1//EN" "http://www.w3.org/Graphics/SVG/1.1/DTD/svg11.dtd"><svg class="icon" width="128px" height="128.00px" viewBox="0 0 1024 1024" version="1.1" xmlns="http://www.w3.org/2000/svg"><path d="M591 91.264h21.273l206.727 242-5 14.448H636l-30.879-14.448-26.121-41z" fill="#FFFFFF" /><path d="M824 344.843c-2.251-6.11-4.859-11.552-8.851-16.232L627.046 107.664c-4.879-5.722-10.869-11.448-18.146-14.806C601.623 89.5 594.145 87 586.625 87H228.817c-13.705 0-28.543 6.159-39 16.616C179.361 114.072 173 128.709 173 142.414v728.317c0 13.705 6.361 26.269 16.818 36.726s25.294 14.544 39 14.544h546.237c13.705 0 26.107-4.087 36.564-14.544S826 884.436 826 870.731V363.36c0-6.151 0.252-12.407-2-18.517z m-17.96-11.098c-0.103-0.278-0.266-0.745-0.373-0.745H649.79c-12.514 0-24.974-0.624-34.522-10.171C605.72 313.281 601 304.918 601 292.404V106.495c0 0.556 4.635 0.983 6.253 1.73 6.644 3.067 12.933 7.229 17.388 12.454l172.386 200.208c3.463 4.06 6.6 12.114 8.639 12.114h0.637c-0.111-0.001-0.144 1.067-0.263 0.744z" fill="#E6FAFF" /><path d="M908.316 574.748C897.859 564.291 885.155 558 871.45 558H837V363.361c0-1.402 1.285-2.808 1.394-4.22 0.403-5.172 1.531-12.253-1.502-20.48-2.38-6.459-4.778-13.775-10.478-20.454L638.779 97.24c-6.6-7.745-14.132-11.176-20.841-14.199l-2.516-1.161c-7.494-3.462-14.578-3.907-19.928-3.907-1.621 0-3.233-1.028-4.87-0.981-1.328 0.042-2.653-0.992-3.997-0.992h-357.81c-22.681 0-41.571 7.032-53.332 18.789C164.748 105.536 151 121.61 151 142.414v728.317c0 17.514 10.475 36.532 24.49 50.558C189.511 935.3 211.303 943 228.817 943h546.237c20.804 0 34.644-10.974 45.396-21.716 11.752-11.757 16.55-27.867 16.55-50.553V793h34.45c13.705 0 26.409-3.85 36.866-14.307S923 755.91 923 742.204V613.678c0-13.705-4.227-28.474-14.684-38.93zM601 111.824l2.452 0.503c5.376 2.427 8.5 2.486 10.336 4.635L798.982 333H643.469c-9.387 0-21.582-3.688-28.998-11.109-7.369-7.364-13.471-17.145-13.471-26.627v-183.44z m204 758.907c0 9.523-0.345 21.034-7.206 27.896-9.576 9.575-15.611 12.373-22.739 12.373H228.817c-8.849 0-22.388-4.587-30.17-12.368C190.861 890.844 184 879.58 184 870.731V142.414c0-7.128 5.072-15.398 14.643-24.968 6.867-6.867 20.652-9.446 30.175-9.446H569v187.264c0 18.111 9.331 35.807 22.813 49.284C605.348 358.083 625.458 365 643.469 365H805v193H432.318c-13.705 0-28.793 6.291-39.25 16.748C382.611 585.204 376 599.973 376 613.678v128.526c0 13.705 6.611 26.032 17.068 36.489S418.612 793 432.318 793H805v77.731z" fill="#34C6E8" /><path d="M518.645 688.665v37.288h-22.734v-106.76h53.307c9.706 0 16.646 0.69 20.804 2.081 7.044 2.343 12.593 7.196 16.652 14.56 2.986 5.554 4.482 11.579 4.482 18.095 0 5.439-0.988 10.585-2.965 15.438-1.972 4.864-4.722 8.838-8.242 11.934-3.201 2.772-6.589 4.696-10.161 5.753-3.577 1.077-8.462 1.611-14.648 1.611h-36.495z m0-19.057h30.892c5.544 0 9.445-0.847 11.683-2.552 3.305-2.667 4.963-7.311 4.963-13.932 0-7.144-2.51-11.736-7.526-13.765-1.815-0.743-4.696-1.119-8.64-1.119h-31.373l0.001 31.368zM605.077 725.953v-19.047h48.825c7.787 0 12.965-0.743 15.527-2.238 3.734-2.238 5.601-5.606 5.601-10.083 0-5.23-2.191-9.016-6.563-11.369-2.458-1.381-6.401-2.081-11.845-2.081h-19.847c-12.06 0-20.757-2.186-26.091-6.558-3.31-2.772-5.899-6.244-7.766-10.407s-2.798-8.64-2.798-13.44c0-7.468 2.186-14.309 6.563-20.49 4.262-5.983 11.092-9.497 20.485-10.564 3.201-0.324 7.949-0.481 14.246-0.481h52.983v19.047H646.54c-7.154 0.105-11.903 0.429-14.246 0.962-4.806 1.171-7.207 4.801-7.207 10.878 0 5.125 2.029 8.545 6.082 10.25 2.667 1.276 7.149 1.914 13.446 1.914h17.127c8.749 0 15.26 0.753 19.533 2.249 7.573 2.563 12.802 7.039 15.684 13.44 2.244 5.125 3.363 10.616 3.363 16.484 0 6.516-1.496 12.332-4.482 17.457-4.163 7.248-10.407 11.631-18.728 13.116-4.058 0.648-10.193 0.962-18.409 0.962l-53.626-0.001zM716.806 619.193h45.3c11.312 0 20.061 1.119 26.253 3.357 11.417 4.163 19.047 11.798 22.891 22.896 2.882 8.535 4.32 17.656 4.32 27.362 0 9.612-1.386 18.681-4.163 27.216-2.777 8.755-7.364 15.208-13.765 19.371-4.058 2.563-8.509 4.299-13.367 5.198-4.853 0.91-12.243 1.36-22.169 1.36h-45.3v-106.76z m22.733 19.047v68.667h22.566c9.926 0 16.808-2.186 20.647-6.558 2.348-2.782 4.247-6.673 5.685-11.683 1.443-5.021 2.16-10.355 2.16-16.013 0-6.297-0.852-12.06-2.557-17.29-1.71-5.219-3.954-9.121-6.725-11.683-4.058-3.629-10.46-5.439-19.209-5.439h-22.567v-0.001z" fill="#FFFFFF" /><path d="M299.076 349.307l70.8-100.914s-45.938 6.778-86.615 86.228c17.332-130.284 161.182-160.783 186.786-151.747 10.166 7.531-24.476 69.284-24.476 69.284l-38.971 4.33 33.324 4.895-13.179 17.885-43.303 4.142 33.889 5.272s-17.613 17.782-21.849 18.074c-4.236 0.272-32.478 3.954-32.478 3.954s19.11 3.2 21.934 3.765c-38.407 29.644-85.862 34.832-85.862 34.832z" fill="#34C6E8" /></svg>