<?xml version="1.0" encoding="utf-8"?>
<!-- Generator: Adobe Illustrator 19.0.0, SVG Export Plug-In . SVG Version: 6.00 Build 0)  -->
<svg version="1.1" id="Layer_1" xmlns="http://www.w3.org/2000/svg" xmlns:xlink="http://www.w3.org/1999/xlink" x="0px" y="0px"
	 viewBox="-35 37 128 128" style="enable-background:new -35 37 128 128;" xml:space="preserve">
<style type="text/css">
	.st0{fill:#FFFFFF;}
	.st1{fill:#DEF9FF;}
	.st2{fill:#00ABDC;}
</style>
<path class="st0" d="M39.3,48.7H42l25.8,30.2l-0.6,1.8H44.9l-3.9-1.8l-3.3-5.1L39.3,48.7z"/>
<path class="st1" d="M68.3,79.8c-0.3-0.8-0.5-1.4-1-2L43.8,50.1c-0.6-0.7-1.3-1.3-2.2-1.7s-1.8-0.6-2.8-0.6H-5.9
	c-1.7,0-3.8,0.6-5.1,1.9c-1.3,1.3-2.4,3-2.4,4.7v91c0,1.7,1.1,3.4,2.4,4.8s3.4,2,5.1,2h68.3c1.7,0,3-0.7,4.3-2
	c1.3-1.3,1.5-3,1.5-4.8V82.1C68.2,81.3,68.5,80.5,68.3,79.8z M66.3,78.7C66.3,78.7,66.3,78.6,66.3,78.7l-19.5-0.1
	c-1.6,0-3.4-0.2-4.6-1.4c-1.2-1.2-2-2.4-2-4V50c0,0.1,0.8,0.1,1,0.2c0.8,0.4,1.7,0.9,2.3,1.6l21.6,25.2C65.5,77.5,66,77.2,66.3,78.7
	L66.3,78.7C66.3,78.6,66.3,78.8,66.3,78.7z"/>
<path class="st2" d="M78.8,108.7c-1.3-1.3-2.6-1.9-4.3-1.9h-4.8V82.1c0-0.2,0.4-0.4,0.4-0.5c0.1-0.6,0.4-1.5,0-2.6
	c-0.3-0.8-0.6-1.7-1.3-2.6L45.4,48.8c-0.8-1-1.8-1.4-2.6-1.8l-0.3-0.1c-0.9-0.4-1.8-0.5-2.5-0.5c-0.2,0-0.4,0-0.6,0
	c-0.2,0-0.3,0-0.5,0H-5.9c-2.8,0-5.5,0.7-6.9,2.2c-1.3,1.3-3.3,3.2-3.3,5.8v91c0,2.2,1.6,4.7,3.3,6.5c1.8,1.8,4.7,2.9,6.9,2.9h68.3
	c2.6,0,4.1-1.5,5.4-2.9c1.5-1.5,1.8-3.6,1.8-6.5v-9.4h4.8c1.7,0,3-0.6,4.3-2s1.6-3,1.6-4.7v-16.1C80.4,111.7,80.1,110,78.8,108.7z
	 M40.1,50.6l0.6,0.1c0.7,0.3,1.3,0.5,1.5,0.7l23.2,27.2H46c-1.2,0-3-0.6-3.9-1.6c-0.9-0.9-1.9-2.3-1.9-3.5
	C40.1,73.6,40.1,50.6,40.1,50.6z M65.6,145.5c0,1.2,0.2,2.8-0.6,3.7c-1.2,1.2-1.7,1.7-2.6,1.7H-5.9c-1.1,0-3.1-0.7-4-1.7
	c-1-1-2.1-2.5-2.1-3.7v-91c0-0.9,0.9-1.8,2.1-3c0.9-0.9,2.8-1,4-1h42v23.1c0,2.3,1.4,4.6,3.1,6.3c1.7,1.7,4.5,2.7,6.7,2.7h19.7v24.1
	H19.6c-1.7,0-3.9,0.6-5.2,1.9c-1.3,1.3-2.4,3-2.4,4.7v16.1c0,1.7,1.1,3.4,2.4,4.7c1.3,1.3,3.5,2,5.2,2h46.1V145.5z"/>
</svg>
