<?xml version="1.0" standalone="no"?><!DOCTYPE svg PUBLIC "-//W3C//DTD SVG 1.1//EN" "http://www.w3.org/Graphics/SVG/1.1/DTD/svg11.dtd"><svg class="icon" width="128px" height="128.00px" viewBox="0 0 1024 1024" version="1.1" xmlns="http://www.w3.org/2000/svg"><path d="M594.5 93.5h21.273l206.727 242-5 14.448h-178L608.621 335.5l-26.121-41z" fill="#FFFFFF" /><path d="M826.12 342.186c-2.251-6.11-3.799-11.552-7.791-16.232L630.756 105.007c-4.879-5.722-10.604-10.119-17.881-13.477-7.277-3.358-14.49-4.529-22.01-4.529H233.057c-13.705 0-30.663 4.831-41.12 15.288C181.481 112.744 173 126.052 173 139.757v728.317c0 13.705 8.481 27.597 18.938 38.054S219.352 922 233.057 922h546.237c13.705 0 23.987-5.415 34.444-15.872C824.195 895.671 826 881.779 826 868.074V360.703c0-6.151 2.372-12.407 0.12-18.517z m-15.84-8.441c-0.103-0.278-0.266-0.745-0.373-0.745H654.029c-12.514 0-27.094-1.952-36.642-11.5C607.84 311.952 601 302.261 601 289.747V103.838c0 0.556 6.754 0.983 8.372 1.73 6.644 3.067 13.993 7.229 18.448 12.454l172.916 201.536c3.463 4.06 7.13 2.442 9.169 13.442h0.637c-0.11 0-0.144 1.068-0.262 0.745z" fill="#DEF9FF" /><path d="M910.436 573.419C899.979 562.963 889.395 558 875.689 558H837V360.704c0-1.402 3.405-2.808 3.515-4.22 0.403-5.172 3.356-12.253 0.323-20.48-2.38-6.459-4.63-13.775-10.331-20.454L642.945 94.583c-6.6-7.745-14.095-11.176-20.804-14.199l-2.497-1.161c-7.494-3.462-14.569-3.907-19.919-3.907-1.621 0-3.229 0.3-4.866 0.347-1.329 0.042-2.649 0.337-3.993 0.337H233.057c-22.681 0-43.69 5.704-55.452 17.46C166.868 104.207 151 118.953 151 139.757v728.317c0 17.514 12.595 37.861 26.61 51.887C191.631 933.971 215.543 943 233.057 943h546.237c20.804 0 32.524-12.303 43.277-23.045C834.322 908.199 837 890.76 837 868.074V793h38.689c13.705 0 24.29-5.178 34.747-15.635S923 753.253 923 739.547V611.021c0-13.705-2.107-27.145-12.564-37.602zM601 109.167l4.572 0.503c5.376 2.427 10.325 3.814 12.161 5.964L803.222 333H647.709c-9.387 0-23.702-5.017-31.118-12.438-7.369-7.364-15.591-18.473-15.591-27.955v-183.44z m204 758.907c0 9.523 1.775 22.363-5.086 29.224-9.576 9.575-13.491 13.702-20.62 13.702H233.057c-8.849 0-24.507-5.915-32.289-13.697-7.787-7.787-16.768-20.381-16.768-29.229V139.757c0-7.128 7.192-14.069 16.763-23.64 6.867-6.867 22.771-8.118 32.294-8.118H569v184.607c0 18.111 11.451 37.135 24.934 50.612C607.468 356.754 629.697 365 647.709 365H805v193H436.557c-13.705 0-30.913 4.963-41.37 15.419C384.731 583.876 376 597.316 376 611.021v128.526c0 13.705 8.731 27.36 19.187 37.817C405.644 787.822 422.852 793 436.557 793H805v75.074z" fill="#00ABDC" /><path d="M533.208 616.668v64.023c0 5.125 0.429 9.1 1.286 11.924 0.847 2.835 2.291 5.261 4.32 7.29 4.477 4.372 10.721 6.558 18.723 6.558 5.125 0 9.581-0.879 13.367-2.636 3.786-1.768 6.433-4.142 7.928-7.123 1.496-2.991 2.238-8.326 2.238-16.014v-64.023h22.729v62.904c0 8.326-0.879 15.187-2.636 20.574-1.768 5.387-4.456 9.738-8.085 13.043-8.43 7.363-20.386 11.045-35.855 11.045-16.547 0-28.607-3.629-36.179-10.888-3.943-3.734-6.673-7.918-8.158-12.562-1.496-4.644-2.249-11.181-2.249-19.612v-64.504h22.571v0.001zM647.174 682.929v40.499h-22.729v-106.76h52.182c14.936 0 25.343 1.914 31.211 5.763 4.058 2.563 7.175 5.951 9.361 10.156 2.186 4.226 3.284 8.838 3.284 13.848 0 10.146-2.563 17.98-7.677 23.534-3.211 3.305-7.426 5.815-12.646 7.52 4.152 1.496 7.301 3.075 9.435 4.728s4.058 4.079 5.763 7.28c1.286 2.563 2.217 5.021 2.803 7.363 0.586 2.343 1.046 5.815 1.36 10.407 0.638 7.677 1.496 13.064 2.563 16.16h-25.448c-0.753-2.448-1.548-7.52-2.406-15.208-0.533-6.182-1.621-10.93-3.274-14.246-1.663-3.305-4.142-5.92-7.447-7.834-4.163-2.249-10.188-3.316-18.085-3.211l-18.25 0.001z m0-19.047h31.849c5.334 0 9.131-0.795 11.37-2.395 3.41-2.353 5.125-6.454 5.125-12.332 0-6.506-2.563-10.669-7.688-12.478-1.81-0.648-4.749-0.962-8.807-0.962h-31.849v28.167zM737.451 616.668h22.572v60.027c0.324 7.573 0.638 12.593 0.962 15.041 0.743 4.916 3.096 8.242 7.039 10.01 3.954 1.757 10.888 2.636 20.814 2.636h21.766v19.047h-24.172c-11.411 0-19.685-0.638-24.81-1.914-11.736-3.42-19.204-10.888-22.404-22.415-1.182-4.477-1.768-11.945-1.768-22.404l0.001-60.028z" fill="#FFFFFF" /><path d="M431.839 386.857l-29.12 12.258-25.291-65.894s-9.404-11.171-20.563 0c-3.954 5.25-27.697 28.344-27.697 28.344v-171.64l120.838 114.928h-34.254c-19.705 0-9.968 20.69-9.968 20.69l26.055 61.314z" fill="#00ABDC" /></svg>