<?xml version="1.0" encoding="utf-8"?>
<!-- Generator: Adobe Illustrator 19.0.0, SVG Export Plug-In . SVG Version: 6.00 Build 0)  -->
<svg version="1.1" id="Layer_1" xmlns="http://www.w3.org/2000/svg" xmlns:xlink="http://www.w3.org/1999/xlink" x="0px" y="0px"
	 viewBox="-289 381 32 32" style="enable-background:new -289 381 32 32;" xml:space="preserve">
<style type="text/css">
	.st0{fill:#646464;}
</style>
<path class="st0" d="M-259,399.6c-3.1,0.8-5.4,3.7-5.4,7c0,0.6,0.1,1.2,0.2,1.8l-3.8,2.2c-1.3-1.3-3.2-2.2-5.1-2.2
	c-2,0-3.8,0.8-5.1,2.2l-3.8-2.2c0.2-0.6,0.2-1.2,0.2-1.8c0-3.4-2.3-6.2-5.4-7v-4.1c3.1-0.8,5.4-3.7,5.4-7c0-0.6-0.1-1.2-0.2-1.8
	l3.8-2.2c1.3,1.3,3.2,2.2,5.1,2.2c2,0,3.8-0.8,5.1-2.2l3.8,2.2c-0.2,0.6-0.2,1.2-0.2,1.8c0,3.4,2.3,6.2,5.4,7V399.6 M-257.2,401.2
	v-7.4c-3,0-5.4-2.5-5.4-5.4c0-1,0.3-1.8,0.7-2.7l-6.5-3.7c-0.9,1.6-2.7,2.8-4.7,2.8c-2.1,0-3.8-1.1-4.7-2.8l-6.5,3.7
	c0.4,0.8,0.7,1.7,0.7,2.7c0,3-2.5,5.4-5.4,5.4v7.4c3,0,5.4,2.5,5.4,5.4c0,1-0.3,1.8-0.7,2.7l6.5,3.7c0.9-1.6,2.7-2.8,4.7-2.8
	c2.1,0,3.8,1.1,4.7,2.8l6.5-3.7c-0.4-0.8-0.7-1.7-0.7-2.7C-262.6,403.7-260.1,401.2-257.2,401.2L-257.2,401.2L-257.2,401.2
	L-257.2,401.2z M-277.6,397.5c0-2.6,2.1-4.5,4.5-4.5c2.6,0,4.5,2.1,4.5,4.5c0,2.6-2.1,4.5-4.5,4.5
	C-275.7,402-277.6,400.1-277.6,397.5L-277.6,397.5z M-270.3,397.5c0-1.5-1.2-2.8-2.8-2.8c-1.5,0-2.8,1.2-2.8,2.8s1.2,2.8,2.8,2.8
	C-271.5,400.3-270.3,399-270.3,397.5z"/>
</svg>
