<?xml version="1.0" standalone="no"?><!DOCTYPE svg PUBLIC "-//W3C//DTD SVG 1.1//EN" "http://www.w3.org/Graphics/SVG/1.1/DTD/svg11.dtd"><svg t="1495321032584" class="icon" style="" viewBox="0 0 1025 1024" version="1.1" xmlns="http://www.w3.org/2000/svg" p-id="1168" xmlns:xlink="http://www.w3.org/1999/xlink" width="128.125" height="128"><defs><style type="text/css"></style></defs><path d="M512.3136 0C229.37088 0 0 229.37088 0 512.31488c0 204.3648 119.66464 380.77312 292.74368 462.99904-55.13344-55.16672-89.27872-131.59936-89.27872-216.07168 0-84.08192 33.82272-160.20352 88.50816-215.31136-7.82592-21.50144-12.352-44.54272-13.48608-68.4736-0.29312-0.04352-0.49024-0.07168-0.49024-0.07168l0.45952-0.61696c-0.04096-0.90624-0.06784-1.81504-0.11904-2.71744-29.96736-66.69312 1.1776-284.33152 1.1776-284.33152s86.50368 40.22144 102.1248 83.03232c36.73344-24.48256 80.8128-38.77504 128.2368-38.77504 48.07808 0 92.73728 14.66496 129.77152 39.77088 14.76352-43.20896 102.10816-84.02688 102.10816-84.02688s30.91584 217.2928 1.34528 284.59008l1.81504 2.42176c0 0-1.07776 0.15744-3.0656 0.44032-0.03328 0.06656-0.06144 0.14848-0.09344 0.21504-0.16128 0.32128-0.39552 0.61824-0.57728 0.93312-1.3376 25.94304-6.69184 50.816-15.83104 73.83168 6.10432 6.50624 12.00768 13.20704 17.5296 20.23552 12.4288 15.81952 23.09888 33.04704 32.24064 51.19104l9.81248 0c2.15424-0.5888 4.30208-1.18912 6.51264-1.62944l0-29.99168c0-2.74304 0.25344-5.41952 0.61696-8.06144 5.37984 3.38304 11.71072 5.41312 18.54848 5.41312 4.88704 0 9.52704-1.01888 13.74848-2.82496 6.32448 6.464 15.13856 10.5088 24.93056 10.5088 9.79072 0 18.60608-4.0448 24.93056-10.5088 4.22016 1.80608 8.86016 2.82496 13.7472 2.82496 6.93376 0 13.35808-2.06848 18.784-5.53984 0.37504 2.68288 0.63488 5.4016 0.63488 8.18816l0 90.02496c0 5.19936-0.73984 10.2144-2.00576 15.01312 1.2544 6.17472 1.92512 12.56192 1.92512 19.104 0 53.0496-43.29216 96.05504-96.69632 96.05504-2.304 0-4.56192-0.18432-6.82624-0.34176-11.5648 69.67936-46.5984 131.3472-96.63616 176.46336C893.45792 909.60256 1024.6272 726.27968 1024.6272 512.31488 1024.6272 229.37088 795.2576 0 512.3136 0zM887.96416 571.93728c-10.68032 0-19.33824-8.6016-19.33824-19.21152l0 7.68512c0 10.60992-8.65792 19.21024-19.33952 19.21024-10.6816 0-19.33824-8.60032-19.33824-19.21024l0-7.68512c0 10.60992-8.65792 19.21152-19.33952 19.21152-10.68032 0-19.33952-8.6016-19.33952-19.21152 0-31.82976 25.97504-57.632 58.01728-57.632 32.04224 0 58.01728 25.80352 58.01728 57.632C907.30496 563.33568 898.64576 571.93728 887.96416 571.93728z" p-id="1169" fill="#3375BB"></path></svg>