<?xml version="1.0" encoding="utf-8"?>
<!-- Generator: Adobe Illustrator 19.0.0, SVG Export Plug-In . SVG Version: 6.00 Build 0)  -->
<svg version="1.1" id="Layer_1" xmlns="http://www.w3.org/2000/svg" xmlns:xlink="http://www.w3.org/1999/xlink" x="0px" y="0px"
	 viewBox="-205 297 200.2 200" style="enable-background:new -205 297 200.2 200;" xml:space="preserve">
<style type="text/css">
	.st0{fill:#646464;}
</style>
<path class="st0" d="M-17.4,353.8c-4.8-10.2-11.7-19.3-20.5-27.1c-8.7-7.8-18.9-13.9-30.1-18.1c-11.6-4.4-24-6.6-36.7-6.6
	s-25.1,2.2-36.7,6.6c-11.3,4.3-21.4,10.3-30.1,18.1c-8.8,7.8-15.7,16.9-20.5,27.1c-5,10.6-7.6,21.8-7.6,33.4
	c0,19.6,7.5,38.5,21.2,53.6l-7.8,33.3c0,0,0,0,0,0.1c-0.7,3.2,0.3,6.6,2.7,8.8c1.7,1.6,3.8,2.4,6,2.4c0.8,0,1.6-0.1,2.4-0.3
	c0.2-0.1,0.5-0.2,0.7-0.3l34.3-15.1c2.8-1.2,4.1-4.5,2.9-7.4c-1.2-2.8-4.5-4.1-7.4-2.9l-29.7,13l7.5-32.1c0.4-1.9-0.1-3.8-1.4-5.2
	c-13-13.4-20.1-30.5-20.1-48.1c0-40.8,37.6-74,83.8-74s83.8,33.2,83.8,74s-37.6,74-83.8,74c-6.1,0-12.1-0.6-18-1.7
	c-3-0.6-6,1.4-6.5,4.4c-0.6,3,1.4,6,4.4,6.5c6.6,1.3,13.3,1.9,20.1,1.9c12.7,0,25.1-2.2,36.7-6.6c11.3-4.3,21.4-10.3,30.1-18.1
	c8.8-7.8,15.7-16.9,20.5-27.1c5-10.6,7.6-21.8,7.6-33.4C-9.8,375.6-12.3,364.4-17.4,353.8z M-141.6,373.6c-6.6,0-11.9,5.3-11.9,11.9
	c0,6.6,5.3,11.9,11.9,11.9c6.6,0,11.9-5.3,11.9-11.9C-129.7,378.9-135,373.6-141.6,373.6z M-92.7,385.5c0-6.6-5.3-11.9-11.9-11.9
	c-6.6,0-11.9,5.3-11.9,11.9c0,6.6,5.3,11.9,11.9,11.9C-98.1,397.4-92.7,392-92.7,385.5z M-55.8,385.5c0-6.6-5.3-11.9-11.9-11.9
	c-6.6,0-11.9,5.3-11.9,11.9c0,6.6,5.3,11.9,11.9,11.9C-61.1,397.4-55.8,392-55.8,385.5z"/>
</svg>
