<?xml version="1.0" encoding="utf-8"?>
<!-- Generator: Adobe Illustrator 19.0.0, SVG Export Plug-In . SVG Version: 6.00 Build 0)  -->
<svg version="1.1" id="Layer_1" xmlns="http://www.w3.org/2000/svg" xmlns:xlink="http://www.w3.org/1999/xlink" x="0px" y="0px"
	 viewBox="-289 381 32.1 32" style="enable-background:new -289 381 32.1 32;" xml:space="preserve">
<style type="text/css">
	.st0{fill:#646464;}
</style>
<path class="st0" d="M-279.6,398.2c-1.1,0.5-7.6,3.3-3.1,7.7c2.5,2.5,6.6,0.9,7.6-1.5c0.1-1.7,0.1-13.7,0.1-15.4
	c0-1.7,4.9-10.5,13.9-5.5c0,0,10.1,5.9-1.6,15.4c0,0-4,0.3-3.1-3.1c-0.1-1,4.9-3.3,4.2-6.5c-1.1-3.8-7.2-4.9-8.8-0.1v15
	c0.1,2.1-4.1,9-12.8,6.1c0,0-5.8-2.5-5.5-8.7c0.3-2.8,2.9-6.3,5.9-7.4C-279.3,393.4-278.1,396.7-279.6,398.2z"/>
</svg>
